<?xml version="1.0" encoding="UTF-8"?>
<svg width="86px" height="72px" viewBox="0 0 86 72" version="1.1" xmlns="http://www.w3.org/2000/svg" xmlns:xlink="http://www.w3.org/1999/xlink">
    <title>icons8-code_file</title>
    <g id="页面-1" stroke="none" stroke-width="1" fill="none" fill-rule="evenodd">
        <g id="icons8-code_file" fill-rule="nonzero">
            <path d="M82.215,42.71 C83.35,40.555 84,38.105 84,35.5 C84,28.879 79.841,23.243 73.999,21.022 C73.999,21.015 74,21.008 74,21 C74,9.402 64.598,0 53,0 C43.216,0 35.019,6.701 32.687,15.757 C31.211,15.272 29.638,15 28,15 C20.308,15 13.977,20.793 13.11,28.252 C7.906,29.353 4,33.969 4,39.5 C4,45.851 9.149,51 15.5,51 C15.677,51 15.852,50.988 16.026,50.978 C16.022,51.153 16,51.324 16,51.5 C16,62.822 25.178,72 36.5,72 C42.937,72 48.675,69.028 52.434,64.386 C54.612,66.611 57.64,68 61,68 C65.65,68 69.674,65.35 71.666,61.482 C72.718,61.817 73.837,62 75,62 C81.075,62 86,57.075 86,51 C86,47.689 84.53,44.727 82.215,42.71 Z" id="路径" fill="#7D7FE9"></path>
            <path d="M71.5,46.5 L71.5,47 L74.5,47 L74.5,46.5 C76.378,46.5 78.684,46.5 80,46.5 C82.485,46.5 84.5,44.485 84.5,42 C84.5,39.667 82.718,37.771 80.445,37.545 C80.467,37.364 80.5,37.187 80.5,37 C80.5,34.515 78.485,32.5 76,32.5 C74.562,32.5 73.297,33.186 72.473,34.236 C72.333,31.6 70.171,29.5 67.5,29.5 C64.739,29.5 62.5,31.739 62.5,34.5 C62.5,34.946 62.577,35.37 62.687,35.782 C62.045,35.005 61.086,34.5 60,34.5 C58.219,34.5 56.766,35.835 56.545,37.555 C56.364,37.533 56.187,37.5 56,37.5 C53.515,37.5 51.5,39.515 51.5,42 C51.5,44.485 53.515,46.5 56,46.5 C58.485,46.5 65.5,46.5 65.5,46.5 L71.5,46.5 Z" id="路径" fill="#FDFCEF"></path>
            <path d="M67.5,29 C64.467,29 62,31.467 62,34.5 C62,34.516 62,34.531 62,34.547 C61.398,34.192 60.71,34 60,34 C58.169,34 56.589,35.261 56.142,37.005 C56.095,37.002 56.048,37 56,37 C53.243,37 51,39.243 51,42 C51,44.757 53.243,47 56,47 L71.5,47 C71.776,47 72,46.776 72,46.5 C72,46.224 71.776,46 71.5,46 L56,46 C53.794,46 52,44.206 52,42 C52,39.794 53.794,38 56,38 C56.117,38 56.23,38.017 56.343,38.032 L56.484,38.051 C56.505,38.054 56.525,38.055 56.546,38.055 C56.792,38.055 57.008,37.87 57.041,37.618 C57.232,36.125 58.504,35 60,35 C60.885,35 61.723,35.401 62.301,36.1 C62.399,36.218 62.542,36.282 62.687,36.282 C62.765,36.282 62.843,36.264 62.915,36.226 C63.124,36.119 63.229,35.88 63.169,35.653 C63.054,35.218 63,34.852 63,34.5 C63,32.019 65.019,30 67.5,30 C69.881,30 71.847,31.872 71.974,34.263 C71.985,34.471 72.124,34.65 72.323,34.713 C72.373,34.729 72.424,34.737 72.475,34.737 C72.625,34.737 72.771,34.668 72.867,34.545 C73.638,33.563 74.779,33 76,33 C78.206,33 80,34.794 80,37 C80,37.117 79.983,37.23 79.968,37.343 L79.949,37.484 C79.933,37.618 79.971,37.752 80.055,37.857 C80.139,37.962 80.262,38.029 80.395,38.042 C82.451,38.247 84,39.949 84,42 C84,44.206 82.206,46 80,46 L74.5,46 C74.224,46 74,46.224 74,46.5 C74,46.776 74.224,47 74.5,47 L80,47 C82.757,47 85,44.757 85,42 C85,39.603 83.311,37.587 80.997,37.123 C80.999,37.082 81,37.041 81,37 C81,34.243 78.757,32 76,32 C74.824,32 73.707,32.416 72.817,33.164 C72.219,30.76 70.055,29 67.5,29 L67.5,29 Z" id="路径" fill="#472B29"></path>
            <path d="M79.883,37.5 C78.557,37.5 77.375,38.397 77.009,39.682 C76.971,39.815 77.048,39.953 77.181,39.991 C77.205,39.997 77.228,40 77.25,40 C77.359,40 77.459,39.928 77.49,39.818 C77.795,38.748 78.779,38 79.883,38 C80,38 80.113,38.014 80.225,38.029 C80.237,38.031 80.248,38.032 80.26,38.032 C80.381,38.032 80.489,37.94 80.506,37.815 C80.525,37.678 80.429,37.552 80.292,37.534 C80.158,37.516 80.022,37.5 79.883,37.5 L79.883,37.5 Z" id="路径" fill="#472B29"></path>
            <path d="M10.5,37 L0.5,37 C0.224,37 0,36.776 0,36.5 C0,36.224 0.224,36 0.5,36 L10.5,36 C10.776,36 11,36.224 11,36.5 C11,36.776 10.777,37 10.5,37 Z M13.5,37 L12.5,37 C12.224,37 12,36.776 12,36.5 C12,36.224 12.224,36 12.5,36 L13.5,36 C13.776,36 14,36.224 14,36.5 C14,36.776 13.777,37 13.5,37 Z M18.491,39 L9.5,39 C9.224,39 9,38.776 9,38.5 C9,38.224 9.224,38 9.5,38 L18.491,38 C18.767,38 18.991,38.224 18.991,38.5 C18.991,38.776 18.767,39 18.491,39 Z M7.5,39 L6.5,39 C6.224,39 6,38.776 6,38.5 C6,38.224 6.224,38 6.5,38 L7.5,38 C7.776,38 8,38.224 8,38.5 C8,38.776 7.777,39 7.5,39 Z M4.5,39 L2.5,39 C2.224,39 2,38.776 2,38.5 C2,38.224 2.224,38 2.5,38 L4.5,38 C4.776,38 5,38.224 5,38.5 C5,38.776 4.777,39 4.5,39 Z M10.5,41 L8.5,41 C8.224,41 8,40.776 8,40.5 C8,40.224 8.224,40 8.5,40 L10.5,40 C10.776,40 11,40.224 11,40.5 C11,40.776 10.776,41 10.5,41 Z M13.5,32 C13.323,32 12.677,32 12.5,32 C12.224,32 12,32.224 12,32.5 C12,32.776 12.224,33 12.5,33 C12.677,33 13.323,33 13.5,33 C13.776,33 14,32.776 14,32.5 C14,32.224 13.776,32 13.5,32 Z M13.5,34 C13.323,34 8.677,34 8.5,34 C8.224,34 8,34.224 8,34.5 C8,34.776 8.224,35 8.5,35 C8.677,35 13.323,35 13.5,35 C13.776,35 14,34.776 14,34.5 C14,34.224 13.776,34 13.5,34 Z M18.5,36 C18.323,36 15.677,36 15.5,36 C15.224,36 15,36.224 15,36.5 C15,36.776 15.224,37 15.5,37 C15.677,37 18.323,37 18.5,37 C18.776,37 19,36.776 19,36.5 C19,36.224 18.776,36 18.5,36 Z" id="形状" fill="#FFFFFF"></path>
            <path d="M67.5,10 L57.5,10 C57.224,10 57,9.776 57,9.5 C57,9.224 57.224,9 57.5,9 L67.5,9 C67.776,9 68,9.224 68,9.5 C68,9.776 67.776,10 67.5,10 Z M71.5,10 L69.5,10 C69.224,10 69,9.776 69,9.5 C69,9.224 69.224,9 69.5,9 L71.5,9 C71.776,9 72,9.224 72,9.5 C72,9.776 71.776,10 71.5,10 Z M76.5,12 L66.5,12 C66.224,12 66,11.776 66,11.5 C66,11.224 66.224,11 66.5,11 L76.5,11 C76.776,11 77,11.224 77,11.5 C77,11.776 76.777,12 76.5,12 Z M64.5,12 L63.5,12 C63.224,12 63,11.776 63,11.5 C63,11.224 63.224,11 63.5,11 L64.5,11 C64.776,11 65,11.224 65,11.5 C65,11.776 64.776,12 64.5,12 Z M61.47,12 L59.5,12 C59.224,12 59,11.776 59,11.5 C59,11.224 59.224,11 59.5,11 L61.47,11 C61.746,11 61.97,11.224 61.97,11.5 C61.97,11.776 61.746,12 61.47,12 Z M70.5,8 L65.5,8 C65.224,8 65,7.776 65,7.5 C65,7.224 65.224,7 65.5,7 L70.5,7 C70.776,7 71,7.224 71,7.5 C71,7.776 70.777,8 70.5,8 Z M67.5,14 L65.5,14 C65.224,14 65,13.776 65,13.5 C65,13.224 65.224,13 65.5,13 L67.5,13 C67.776,13 68,13.224 68,13.5 C68,13.776 67.776,14 67.5,14 Z" id="形状" fill="#FFFFFF"></path>
            <g id="编组" transform="translate(13.000000, 43.000000)">
                <path d="M18.5,13.5 C18.5,13.5 20.067,13.5 22,13.5 C23.933,13.5 25.5,11.933 25.5,10 C25.5,8.219 24.165,6.766 22.445,6.545 C22.473,6.366 22.5,6.187 22.5,6 C22.5,4.067 20.933,2.5 19,2.5 C17.968,2.5 17.05,2.955 16.41,3.665 C16.026,1.857 14.423,0.5 12.5,0.5 C10.291,0.5 8.5,2.291 8.5,4.5 C8.5,4.691 8.53,4.874 8.556,5.058 C8.128,4.714 7.592,4.5 7,4.5 C5.772,4.5 4.755,5.387 4.545,6.555 C4.366,6.527 4.187,6.5 4,6.5 C2.067,6.5 0.5,8.067 0.5,10 C0.5,11.933 2.067,13.5 4,13.5 C5.933,13.5 8.5,13.5 8.5,13.5 L8.5,14 L18.5,14 L18.5,13.5 Z" id="路径" fill="#FDFCEF"></path>
                <path d="M20.25,9 C20.112,9 20,8.888 20,8.75 C20,7.527 20.995,6.532 22.218,6.532 C22.252,6.541 22.955,6.531 23.462,6.668 C23.595,6.704 23.674,6.841 23.638,6.974 C23.602,7.108 23.465,7.187 23.332,7.15 C22.888,7.03 22.232,7.03 22.219,7.032 C21.271,7.032 20.5,7.803 20.5,8.75 C20.5,8.888 20.388,9 20.25,9 Z M10.5,13 C10.2238576,13 10,13.2238576 10,13.5 C10,13.7761424 10.2238576,14 10.5,14 C10.7761424,14 11,13.7761424 11,13.5 C11,13.2238576 10.7761424,13 10.5,13 Z" id="形状" fill="#472B29"></path>
                <path d="M22,14 L18.5,14 C18.224,14 18,13.776 18,13.5 C18,13.224 18.224,13 18.5,13 L22,13 C23.654,13 25,11.654 25,10 C25,8.504 23.875,7.232 22.382,7.041 C22.248,7.023 22.127,6.953 22.046,6.845 C21.965,6.737 21.931,6.601 21.952,6.468 C21.975,6.314 22,6.16 22,6 C22,4.346 20.654,3 19,3 C18.15,3 17.362,3.355 16.781,4 C16.656,4.139 16.46,4.198 16.281,4.148 C16.099,4.099 15.96,3.953 15.921,3.769 C15.58,2.165 14.141,1 12.5,1 C10.57,1 9,2.57 9,4.5 C9,4.643 9.021,4.78 9.041,4.918 C9.07,5.121 8.978,5.356 8.799,5.458 C8.62,5.56 8.403,5.576 8.243,5.448 C7.878,5.155 7.449,5 7,5 C6.034,5 5.208,5.691 5.037,6.644 C4.989,6.911 4.741,7.09 4.468,7.049 C4.314,7.025 4.16,7 4,7 C2.346,7 1,8.346 1,10 C1,11.654 2.346,13 4,13 L8.5,13 C8.776,13 9,13.224 9,13.5 C9,13.776 8.776,14 8.5,14 L4,14 C1.794,14 0,12.206 0,10 C0,7.794 1.794,6 4,6 C4.059,6 4.116,6.002 4.174,6.006 C4.588,4.82 5.711,4 7,4 C7.349,4 7.689,4.061 8.011,4.18 C8.176,1.847 10.126,0 12.5,0 C14.331,0 15.966,1.127 16.653,2.774 C17.333,2.276 18.155,2 19,2 C21.206,2 23,3.794 23,6 C23,6.048 22.999,6.095 22.996,6.142 C24.739,6.59 26,8.169 26,10 C26,12.206 24.206,14 22,14 Z" id="路径" fill="#472B29"></path>
                <path d="M16.5,13 C16.341,13 12.659,13 12.5,13 C12.224,13 12,13.224 12,13.5 C12,13.776 12.224,14 12.5,14 C12.659,14 16.341,14 16.5,14 C16.776,14 17,13.776 17,13.5 C17,13.224 16.776,13 16.5,13 Z" id="路径" fill="#472B29"></path>
            </g>
            <g id="编组" transform="translate(28.000000, 12.000000)">
                <path d="M25.086,1 L25.086,1 L37,12.914 L37,43 C37,45.206 35.206,47 33,47 L5,47 C2.794,47 1,45.206 1,43 L1,5 C1,2.794 2.794,1 5,1 L25.086,1" id="路径" fill="#EDF7F5"></path>
                <path d="M24.375,0.5 L24.375,8.627 C24.375,11.388 26.612,13.626 29.373,13.627 L37.5,13.63 L24.375,0.5 Z" id="路径" fill="#85CFCC"></path>
                <path d="M24.42,1.4 L36.6,13.58 L36.6,43 C36.6,44.985 34.985,46.6 33,46.6 L5,46.6 C3.015,46.6 1.4,44.985 1.4,43 L1.4,5 C1.4,3.015 3.015,1.4 5,1.4 L24.42,1.4 M24.586,0 L5,0 C2.239,0 0,2.239 0,5 L0,43 C0,45.761 2.239,48 5,48 L33,48 C35.761,48 38,45.761 38,43 L38,13.414 C38,13.149 37.895,12.894 37.707,12.707 L25.293,0.293 C25.105,0.105 24.851,0 24.586,0 L24.586,0 Z" id="形状" fill="#472B29"></path>
                <path d="M24.75,9 L24.75,1 L24,1 L24,9 C24,11.761 26.239,14 29,14 L37,14 L37,13.25 L29,13.25 C26.656,13.25 24.75,11.343 24.75,9 Z M33.625,29 C33.418,29 33.25,28.832 33.25,28.625 L33.25,25.375 C33.25,25.168 33.418,25 33.625,25 C33.832,25 34,25.168 34,25.375 L34,28.625 C34,28.832 33.832,29 33.625,29 Z M33.625,24 C33.418,24 33.25,23.832 33.25,23.625 L33.25,21.375 C33.25,21.168 33.418,21 33.625,21 C33.832,21 34,21.168 34,21.375 L34,23.625 C34,23.832 33.832,24 33.625,24 Z M30.625,44 L7.375,44 C5.514,44 4,42.486 4,40.625 L4,8.375 C4,7.55 4.311,6.751 4.875,6.124 C5.012,5.97 5.249,5.958 5.404,6.096 C5.558,6.235 5.57,6.471 5.431,6.626 C4.992,7.115 4.749,7.736 4.749,8.375 L4.749,40.625 C4.749,42.072 5.927,43.25 7.374,43.25 L30.624,43.25 C32.071,43.25 33.249,42.072 33.249,40.625 L33.249,30.375 C33.249,30.168 33.417,30 33.624,30 C33.831,30 34,30.168 34,30.375 L34,40.625 C34,42.486 32.486,44 30.625,44 Z" id="形状" fill="#472B29"></path>
            </g>
            <g id="编组" transform="translate(36.999750, 33.000000)">
                <path d="M4.53025,9.47 L2.06125,7 L4.53125,4.53 C4.82325,4.238 4.82325,3.762 4.53125,3.469 C4.38525,3.323 4.19325,3.25 4.00125,3.25 C3.80925,3.25 3.61725,3.323 3.47125,3.469 L0.47125,6.469 C0.17925,6.761 0.17925,7.237 0.47125,7.53 L3.47125,10.53 C3.75425,10.813 4.24825,10.813 4.53225,10.53 C4.82225,10.238 4.82225,9.762 4.53025,9.47 Z M19.53025,6.47 L16.53025,3.47 C16.38425,3.324 16.19225,3.251 16.00025,3.251 C15.80825,3.251 15.61625,3.324 15.47025,3.47 C15.17825,3.762 15.17825,4.238 15.47025,4.531 L17.94025,7.001 L15.47025,9.471 C15.17825,9.763 15.17825,10.239 15.47025,10.532 C15.75325,10.815 16.24725,10.815 16.53125,10.532 L19.53125,7.532 C19.82225,7.238 19.82225,6.762 19.53025,6.47 Z M7.68225,14.314 L13.68225,1.314 C13.85425,0.939 13.69025,0.492 13.31525,0.319 C13.21325,0.272 13.10725,0.25 13.00225,0.25 C12.71825,0.25 12.44525,0.412 12.31825,0.686 L6.31825,13.686 C6.14625,14.061 6.31025,14.508 6.68525,14.681 C7.05125,14.849 7.51325,14.678 7.68225,14.314 Z" id="形状" fill="#BD977C"></path>
                <path d="M4.00025,3.5 C4.13325,3.5 4.25925,3.552 4.35425,3.647 C4.44825,3.741 4.50025,3.867 4.50025,4 C4.50025,4.133 4.44825,4.259 4.35425,4.353 L2.06125,6.646 L1.70725,7 L2.06125,7.354 L4.35425,9.647 C4.44825,9.741 4.50025,9.867 4.50025,10 C4.50025,10.133 4.44825,10.259 4.35425,10.353 C4.25925,10.448 4.13325,10.5 4.00025,10.5 C3.86725,10.5 3.74125,10.448 3.64625,10.353 L0.64625,7.353 C0.55225,7.259 0.50025,7.133 0.50025,7 C0.50025,6.867 0.55225,6.741 0.64725,6.647 L3.64725,3.647 C3.74125,3.552 3.86725,3.5 4.00025,3.5 M4.00025,3 C3.74425,3 3.48825,3.098 3.29325,3.293 L0.29325,6.293 C-0.09775,6.684 -0.09775,7.316 0.29325,7.707 L3.29325,10.707 C3.48825,10.902 3.74425,11 4.00025,11 C4.25625,11 4.51225,10.902 4.70725,10.707 C5.09825,10.316 5.09825,9.684 4.70725,9.293 L2.41425,7 L4.70725,4.707 C5.09825,4.316 5.09825,3.684 4.70725,3.293 C4.51225,3.098 4.25625,3 4.00025,3 L4.00025,3 Z M16.00025,3.5 C16.13325,3.5 16.25925,3.552 16.35425,3.647 L19.35425,6.647 C19.44825,6.741 19.50025,6.867 19.50025,7 C19.50025,7.133 19.44825,7.259 19.35425,7.353 L16.35425,10.353 C16.25925,10.448 16.13325,10.5 16.00025,10.5 C15.86725,10.5 15.74125,10.448 15.64625,10.353 C15.55225,10.259 15.50025,10.133 15.50025,10 C15.50025,9.867 15.55225,9.741 15.64625,9.647 L17.93925,7.354 L18.29325,7 L17.93925,6.646 L15.64625,4.353 C15.55225,4.259 15.50025,4.133 15.50025,4 C15.50025,3.867 15.55225,3.741 15.64625,3.647 C15.74125,3.552 15.86725,3.5 16.00025,3.5 M16.00025,3 C15.74425,3 15.48825,3.098 15.29325,3.293 C14.90225,3.684 14.90225,4.316 15.29325,4.707 L17.58625,7 L15.29325,9.293 C14.90225,9.684 14.90225,10.316 15.29325,10.707 C15.48825,10.902 15.74425,11 16.00025,11 C16.25625,11 16.51225,10.902 16.70725,10.707 L19.70725,7.707 C20.09825,7.316 20.09825,6.684 19.70725,6.293 L16.70725,3.293 C16.51225,3.098 16.25625,3 16.00025,3 L16.00025,3 Z M13.00125,0.5 L13.00125,0.5 C13.07325,0.5 13.14325,0.516 13.21025,0.546 C13.46025,0.662 13.57025,0.959 13.45525,1.21 L7.45525,14.21 C7.37325,14.386 7.19425,14.5 7.00025,14.5 C6.92725,14.5 6.85725,14.485 6.79125,14.454 C6.54125,14.338 6.43125,14.041 6.54625,13.79 L12.54625,0.79 C12.62725,0.614 12.80625,0.5 13.00125,0.5 M13.00125,0 C12.62325,0 12.26125,0.215 12.09225,0.581 L6.09225,13.581 C5.86125,14.082 6.08025,14.677 6.58125,14.908 C6.71725,14.971 6.85925,15 7.00024814,15 C7.37825,15 7.74025,14.785 7.90925,14.419 L13.90925,1.419 C14.14025,0.918 13.92125,0.323 13.42025,0.092 C13.28325,0.029 13.14125,0 13.00125,0 L13.00125,0 Z" id="形状" fill="#472B29"></path>
            </g>
        </g>
    </g>
</svg>