<?xml version="1.0" encoding="UTF-8"?>
<svg width="86px" height="71px" viewBox="0 0 86 71" version="1.1" xmlns="http://www.w3.org/2000/svg" xmlns:xlink="http://www.w3.org/1999/xlink">
    <title>icons8-download</title>
    <g id="页面-1" stroke="none" stroke-width="1" fill="none" fill-rule="evenodd">
        <g id="icons8-download" fill-rule="nonzero">
            <path d="M79.7,42.014355 C80,41.414355 80.3,40.714355 80.5,40.114355 C83.1,32.314355 79.2,23.014355 70.8,20.814355 C69.9,9.31435502 61.9,1.51435502 52.8,0.214355018 C42.5,-1.28564498 33,5.21435502 29.8,15.714355 C26,14.414355 22.3,14.514355 18.8,16.614355 C17.2,17.314355 15.8,18.414355 14.5,19.814355 C12.6,21.914355 11.4,24.514355 10.8,27.314355 C10.1,27.414355 9.3,27.514355 8.6,27.814355 C4.6,29.214355 2,32.214355 1.3,36.714355 C0.9,39.514355 1.7,42.314355 2.2,43.414355 C4.1,47.914355 8.6,50.414355 13.2,49.714355 C13.4,49.714355 13.8,49.814355 14,49.914355 C14.2,57.014355 17.7,63.314355 22.9,66.914355 C31.2,72.714355 41.9,70.914355 48.7,63.014355 C51.6,66.014355 55,67.414355 59.1,66.914355 C63.1,66.414355 66.2,64.214355 68.5,60.614355 C69.6,60.914355 70.6,61.314355 71.6,61.414355 C75.6,61.814355 78.9,60.214355 81.3,56.614355 C82.2,55.214355 83.1,53.414355 83.1,50.214355 C83.2,46.914355 81.9,44.014355 79.7,42.014355 Z" id="路径" fill="#7D7FE9"></path>
            <polygon id="路径" fill="#C0E5E4" points="32.2 36.214355 34.9 33.514355 40.7 39.214355 40.7 14.014355 44.2 14.014355 44.2 39.314355 50 33.514355 52.7 36.214355 42.3 46.614355"></polygon>
            <path d="M43.5,14.714355 L43.5,37.614355 L43.5,41.014355 L45.9,38.614355 L50,34.514355 L51.7,36.214355 L42.3,45.614355 L33.1,36.214355 L34.8,34.514355 L38.9,38.614355 L41.3,41.014355 L41.3,37.614355 L41.3,14.714355 L43.5,14.714355 M44.9,13.314355 L40,13.314355 L40,37.614355 L34.9,32.514355 L31.2,36.214355 L42.3,47.614355 L42.3,47.614355 L42.3,47.614355 L53.7,36.214355 L50,32.514355 L44.9,37.614355 L44.9,13.314355 L44.9,13.314355 Z M46.5,50.314355 L30.5,50.314355 C30.2,50.314355 30,50.114355 30,49.814355 C30,49.514355 30.2,49.314355 30.5,49.314355 L46.5,49.314355 C46.8,49.314355 47,49.514355 47,49.814355 C47,50.114355 46.8,50.314355 46.5,50.314355 Z M49.5,50.314355 L48.5,50.314355 C48.2,50.314355 48,50.114355 48,49.814355 C48,49.514355 48.2,49.314355 48.5,49.314355 L49.5,49.314355 C49.8,49.314355 50,49.514355 50,49.814355 C50,50.114355 49.8,50.314355 49.5,50.314355 Z M54.5,50.314355 L51.5,50.314355 C51.2,50.314355 51,50.114355 51,49.814355 C51,49.514355 51.2,49.314355 51.5,49.314355 L54.5,49.314355 C54.8,49.314355 55,49.514355 55,49.814355 C55,50.114355 54.8,50.314355 54.5,50.314355 Z" id="形状" fill="#472B29"></path>
            <polygon id="路径" fill="#C0E5E4" points="24.7 55.614355 24.7 47.014355 28.3 47.014355 28.3 52.014355 56.7 52.014355 56.7 47.014355 60.3 47.014355 60.3 55.614355"></polygon>
            <path d="M59.6,47.714355 L59.6,51.314355 L59.6,54.914355 L56,54.914355 L29,54.914355 L25.4,54.914355 L25.4,51.314355 L25.4,47.714355 L27.6,47.714355 L27.6,51.314355 L27.6,52.714355 L29,52.714355 L56,52.714355 L57.4,52.714355 L57.4,51.314355 L57.4,47.714355 L59.6,47.714355 M61,46.314355 L56,46.314355 L56,51.314355 L29,51.314355 L29,46.314355 L24,46.314355 L24,51.314355 L24,56.314355 L29,56.314355 L56,56.314355 L61,56.314355 L61,51.314355 L61,46.314355 L61,46.314355 Z" id="形状" fill="#472B29"></path>
            <path d="M70.2,27.714355 C70.2,27.714355 80.8,27.714355 80.9,27.714355 C83.4,27.714355 85.3,25.714355 85.3,23.314355 C85.3,21.214355 83.8,19.414355 81.8,19.014355 C81.8,18.814355 81.8,18.614355 81.8,18.414355 C81.8,15.914355 79.7,13.814355 77.2,13.814355 C75.7,13.814355 74.4,14.514355 73.5,15.614355 C73.3,12.814355 70.8,10.614355 67.8,11.014355 C65.6,11.314355 63.9,12.914355 63.5,15.114355 C63.4,15.814355 63.4,16.514355 63.5,17.114355 C62.9,16.514355 62.1,16.114355 61.2,16.114355 C59.5,16.114355 58.1,17.414355 58,19.114355 C57.2,18.914355 56.4,18.914355 55.5,19.314355 C53.8,19.914355 52.6,21.514355 52.6,23.314355 C52.5,25.814355 54.5,27.914355 57,27.914355 C57.2,27.914355 57.9,27.914355 58,27.914355 L67.2,27.914355" id="路径" fill="#FDFCEF"></path>
            <path d="M80.8,28.214355 L70.2,28.214355 C69.9,28.214355 69.7,28.014355 69.7,27.714355 C69.7,27.414355 69.9,27.214355 70.2,27.214355 L80.9,27.214355 C83.1,27.214355 84.8,25.414355 84.8,23.314355 C84.8,21.414355 83.5,19.814355 81.7,19.414355 C81.4,19.314355 81.3,19.114355 81.3,18.914355 C81.3,18.714355 81.3,18.614355 81.3,18.414355 C81.3,16.114355 79.5,14.314355 77.2,14.314355 C75.9,14.314355 74.7,14.914355 73.9,15.914355 C73.8,16.114355 73.6,16.114355 73.4,16.114355 C73.2,16.014355 73.1,15.914355 73,15.714355 C72.9,14.514355 72.3,13.314355 71.3,12.514355 C70.3,11.714355 69.1,11.414355 67.8,11.514355 C65.9,11.714355 64.2,13.214355 63.9,15.214355 C63.8,15.814355 63.8,16.414355 63.9,17.014355 C63.9,17.214355 63.8,17.414355 63.6,17.514355 C63.4,17.614355 63.2,17.614355 63,17.414355 C62.5,16.814355 61.8,16.514355 61,16.514355 C59.6,16.514355 58.4,17.614355 58.3,19.014355 C58.3,19.114355 58.2,19.314355 58.1,19.414355 C58,19.514355 57.8,19.514355 57.7,19.514355 C56.9,19.314355 56.2,19.414355 55.5,19.714355 C54,20.314355 53,21.714355 52.9,23.214355 C52.9,24.314355 53.2,25.314355 54,26.114355 C54.8,26.914355 55.8,27.314355 56.8,27.314355 L67,27.314355 C67.3,27.314355 67.5,27.514355 67.5,27.814355 C67.5,28.114355 67.3,28.314355 67,28.314355 L57.1,28.314355 C55.7,28.314355 54.5,27.814355 53.5,26.814355 C52.6,25.814355 52.1,24.514355 52.1,23.214355 C52.2,21.314355 53.5,19.514355 55.4,18.814355 C56.1,18.514355 56.9,18.414355 57.6,18.514355 C58,16.814355 59.4,15.614355 61.2,15.614355 C61.8,15.614355 62.4,15.814355 62.9,16.014355 C62.9,15.714355 62.9,15.314355 63,15.014355 C63.4,12.714355 65.4,10.814355 67.8,10.514355 C69.3,10.314355 70.8,10.714355 72,11.714355 C72.9,12.414355 73.5,13.414355 73.8,14.614355 C74.7,13.814355 75.9,13.314355 77.1,13.314355 C79.9,13.314355 82.2,15.614355 82.2,18.414355 C82.2,18.514355 82.2,18.514355 82.2,18.614355 C84.2,19.214355 85.7,21.114355 85.7,23.314355 C85.8,26.014355 83.6,28.214355 80.8,28.214355 Z" id="路径" fill="#472B29"></path>
            <path d="M67.6,18.014355 C66,17.914355 64.5,19.014355 64.4,20.514355 C64.4,20.714355 64.4,20.914355 64.4,21.014355 C64.1,20.614355 63.6,20.414355 63.1,20.414355 C62.1,20.314355 61.3,21.014355 61.1,21.914355 C60.9,21.914355 60.7,21.814355 60.5,21.814355 C59.1,21.714355 57.8,22.714355 57.7,24.014355" id="路径" fill="#FDFCEF"></path>
            <path d="M57.9,24.214355 C57.8,24.214355 57.8,24.214355 57.9,24.214355 C57.7,24.214355 57.6,24.114355 57.6,23.914355 C57.7,22.414355 59.1,21.314355 60.6,21.514355 C60.7,21.514355 60.8,21.514355 61,21.514355 C61.3,20.614355 62.2,20.014355 63.2,20.114355 C63.6,20.114355 63.9,20.214355 64.2,20.414355 C64.2,20.414355 64.2,20.414355 64.2,20.414355 C64.3,18.814355 65.9,17.514355 67.6,17.614355 C67.7,17.614355 67.8,17.714355 67.8,17.914355 C67.8,18.014355 67.7,18.114355 67.5,18.114355 C66,18.014355 64.7,19.014355 64.6,20.414355 C64.6,20.614355 64.6,20.714355 64.6,20.914355 C64.6,21.014355 64.6,21.114355 64.5,21.214355 C64.4,21.214355 64.3,21.214355 64.2,21.114355 C63.9,20.814355 63.5,20.614355 63,20.514355 C62.2,20.414355 61.4,21.014355 61.3,21.814355 C61.3,21.914355 61.2,21.914355 61.2,22.014355 C61.1,22.014355 61.1,22.114355 61,22.014355 C60.8,22.014355 60.7,21.914355 60.5,21.914355 C59.2,21.814355 58.1,22.714355 58,23.914355 C58.1,24.114355 58,24.214355 57.9,24.214355 Z" id="路径" fill="#472B29"></path>
            <g id="编组" transform="translate(78.260770, 18.858840)">
                <path d="M4.33923048,0.655515004 C2.83923048,-0.044484996 1.03923048,0.455515004 0.339230485,1.855515 C0.239230485,2.055515 0.239230485,2.155515 0.139230485,2.355515" id="路径" fill="#FDFCEF"></path>
                <path d="M0.239230485,2.555515 C0.239230485,2.555515 0.139230485,2.555515 0.239230485,2.555515 C0.0392304845,2.555515 -0.0607695155,2.355515 0.0392304845,2.255515 C0.0392304845,2.055515 0.139230485,1.855515 0.239230485,1.655515 C0.939230485,0.155515004 2.93923048,-0.444484996 4.53923048,0.355515004 C4.63923048,0.455515004 4.73923048,0.555515004 4.63923048,0.655515004 C4.53923048,0.755515004 4.43923048,0.855515004 4.33923048,0.755515004 C2.93923048,0.055515004 1.23923048,0.555515004 0.639230485,1.755515 C0.539230485,1.855515 0.539230485,2.055515 0.439230485,2.255515 C0.439230485,2.455515 0.339230485,2.555515 0.239230485,2.555515 Z" id="路径" fill="#472B29"></path>
            </g>
            <g id="编组" transform="translate(6.800000, 8.595796)">
                <path d="M19.3,13.2185591 C21,13.2185591 22.5,13.2185591 22.5,13.2185591 C24.4,13.2185591 26,11.7185591 26,9.81855913 C26,8.21855913 24.8,6.81855913 23.2,6.51855913 C23.2,6.41855913 23.2,6.21855913 23.2,6.11855913 C23.2,4.21855913 21.6,2.61855913 19.6,2.61855913 C18.4,2.61855913 17.4,3.21855913 16.7,4.01855913 C16.5,1.81855913 14.6,0.218559127 12.2,0.418559127 C10.5,0.618559127 9.1,1.91855913 8.8,3.51855913 C8.7,4.01855913 8.7,4.51855913 8.8,5.01855913 C8.3,4.51855913 7.7,4.21855913 7,4.21855913 C5.7,4.21855913 4.6,5.21855913 4.5,6.51855913 C3.9,6.41855913 3.3,6.41855913 2.6,6.61855913 C1.3,7.11855913 0.4,8.31855913 0.3,9.61855913 C0.2,11.5185591 1.8,13.1185591 3.8,13.1185591 C3.9,13.1185591 4.5,13.1185591 4.6,13.1185591 L11.8,13.1185591 M13.4,13.2185591 L13.7,13.2185591" id="形状" fill="#FDFCEF"></path>
                <path d="M22.5,13.7185591 L19.3,13.7185591 C19,13.7185591 18.8,13.5185591 18.8,13.2185591 C18.8,12.9185591 19,12.7185591 19.3,12.7185591 L22.5,12.7185591 C24.1,12.7185591 25.5,11.4185591 25.5,9.81855913 C25.5,8.41855913 24.5,7.21855913 23.1,7.01855913 C22.8,6.91855913 22.7,6.71855913 22.7,6.41855913 C22.7,6.31855913 22.7,6.21855913 22.7,6.01855913 C22.7,4.31855913 21.3,3.01855913 19.6,3.01855913 C18.6,3.01855913 17.7,3.41855913 17.1,4.21855913 C17,4.41855913 16.8,4.41855913 16.6,4.41855913 C16.4,4.31855913 16.3,4.21855913 16.2,4.01855913 C16.1,3.11855913 15.7,2.31855913 15,1.71855913 C14.3,1.11855913 13.3,0.818559127 12.3,0.918559127 C10.8,1.11855913 9.6,2.21855913 9.3,3.61855913 C9.2,4.01855913 9.2,4.51855913 9.3,4.91855913 C9.3,5.11855913 9.2,5.31855913 9,5.41855913 C8.8,5.51855913 8.6,5.51855913 8.4,5.31855913 C8.2,4.91855913 7.7,4.71855913 7.2,4.71855913 C6.2,4.71855913 5.3,5.51855913 5.2,6.51855913 C5.2,6.61855913 5.1,6.81855913 5,6.91855913 C4.9,7.01855913 4.7,7.01855913 4.6,7.01855913 C4,6.91855913 3.5,6.91855913 3,7.11855913 C1.9,7.51855913 1.1,8.61855913 1,9.71855913 C1,10.5185591 1.3,11.2185591 1.8,11.8185591 C2.4,12.4185591 3.1,12.7185591 4,12.7185591 L12,12.7185591 C12.3,12.7185591 12.5,12.9185591 12.5,13.2185591 C12.5,13.5185591 12.2,13.7185591 12,13.7185591 L4,13.7185591 C2.9,13.7185591 1.9,13.3185591 1.1,12.5185591 C0.4,11.7185591 0,10.7185591 0,9.71855913 C0.1,8.21855913 1.1,6.81855913 2.6,6.21855913 C3.1,6.01855913 3.7,5.91855913 4.3,6.01855913 C4.6,4.71855913 5.8,3.81855913 7.2,3.81855913 C7.6,3.81855913 8.1,3.91855913 8.4,4.11855913 C8.4,3.91855913 8.4,3.71855913 8.5,3.51855913 C8.9,1.71855913 10.4,0.218559127 12.3,0.0185591271 C13.5,-0.0814408729 14.8,0.218559127 15.7,1.01855913 C16.4,1.51855913 16.8,2.31855913 17.1,3.01855913 C17.8,2.41855913 18.7,2.11855913 19.7,2.11855913 C22,2.11855913 23.8,3.91855913 23.8,6.11855913 C23.8,6.11855913 23.8,6.11855913 23.8,6.21855913 C25.4,6.71855913 26.5,8.21855913 26.5,9.91855913 C26.5,11.9185591 24.7,13.7185591 22.5,13.7185591 Z M13.8,13.7185591 L13.5,13.7185591 C13.2,13.7185591 13,13.5185591 13,13.2185591 C13,12.9185591 13.2,12.7185591 13.4,12.7185591 L13.7,12.7185591 C14,12.7185591 14.2,12.9185591 14.2,13.2185591 C14.2,13.5185591 14,13.7185591 13.8,13.7185591 Z" id="形状" fill="#472B29"></path>
                <path d="M21,8.41855913 C21,8.41855913 21,8.41855913 21,8.41855913 C20.8,8.41855913 20.7,8.21855913 20.8,8.11855913 C20.8,7.91855913 20.9,7.81855913 21,7.71855913 C21.6,6.61855913 23.1,6.21855913 24.4,6.81855913 C24.5,6.91855913 24.6,7.01855913 24.5,7.11855913 C24.4,7.21855913 24.3,7.31855913 24.2,7.21855913 C23.1,6.71855913 21.9,7.01855913 21.4,7.91855913 C21.3,8.01855913 21.3,8.11855913 21.3,8.21855913 C21.2,8.31855913 21.1,8.41855913 21,8.41855913 Z" id="路径" fill="#472B29"></path>
                <path d="M16.3,13.7185591 L15.3,13.7185591 C15,13.7185591 14.8,13.5185591 14.8,13.2185591 C14.8,12.9185591 15,12.7185591 15.3,12.7185591 L16.3,12.7185591 C16.6,12.7185591 16.8,12.9185591 16.8,13.2185591 C16.8,13.5185591 16.6,13.7185591 16.3,13.7185591 Z" id="路径" fill="#472B29"></path>
            </g>
            <path d="M10.4,38.314355 L0.5,38.314355 C0.2,38.314355 0,38.114355 0,37.814355 C0,37.514355 0.2,37.314355 0.5,37.314355 L10.4,37.314355 C10.7,37.314355 10.9,37.514355 10.9,37.814355 C10.9,38.114355 10.7,38.314355 10.4,38.314355 Z M13.5,38.314355 L12.5,38.314355 C12.2,38.314355 12,38.114355 12,37.814355 C12,37.514355 12.2,37.314355 12.5,37.314355 L13.5,37.314355 C13.8,37.314355 14,37.514355 14,37.814355 C14,38.114355 13.8,38.314355 13.5,38.314355 Z M18.5,40.314355 L9.5,40.314355 C9.2,40.314355 9,40.114355 9,39.814355 C9,39.514355 9.2,39.314355 9.5,39.314355 L18.5,39.314355 C18.8,39.314355 19,39.514355 19,39.814355 C19,40.114355 18.8,40.314355 18.5,40.314355 Z M7.5,40.314355 L6.5,40.314355 C6.2,40.314355 6,40.114355 6,39.814355 C6,39.514355 6.2,39.314355 6.5,39.314355 L7.5,39.314355 C7.8,39.314355 8,39.514355 8,39.814355 C8,40.114355 7.8,40.314355 7.5,40.314355 Z M4.5,40.314355 L2.5,40.314355 C2.2,40.314355 2,40.114355 2,39.814355 C2,39.514355 2.2,39.314355 2.5,39.314355 L4.5,39.314355 C4.8,39.314355 5,39.514355 5,39.814355 C5,40.114355 4.8,40.314355 4.5,40.314355 Z M10.5,42.314355 L8.5,42.314355 C8.2,42.314355 8,42.114355 8,41.814355 C8,41.514355 8.2,41.314355 8.5,41.314355 L10.5,41.314355 C10.8,41.314355 11,41.514355 11,41.814355 C11,42.114355 10.8,42.314355 10.5,42.314355 Z M13.5,33.314355 C13.3,33.314355 12.7,33.314355 12.5,33.314355 C12.2,33.314355 12,33.514355 12,33.814355 C12,34.114355 12.2,34.314355 12.5,34.314355 C12.7,34.314355 13.3,34.314355 13.5,34.314355 C13.8,34.314355 14,34.114355 14,33.814355 C14,33.514355 13.8,33.314355 13.5,33.314355 Z M13.5,35.314355 C13.3,35.314355 8.7,35.314355 8.5,35.314355 C8.2,35.314355 8,35.514355 8,35.814355 C8,36.114355 8.2,36.314355 8.5,36.314355 C8.7,36.314355 13.3,36.314355 13.5,36.314355 C13.8,36.314355 14,36.114355 14,35.814355 C14,35.514355 13.8,35.314355 13.5,35.314355 Z M18.5,37.314355 C18.3,37.314355 15.7,37.314355 15.5,37.314355 C15.2,37.314355 15,37.514355 15,37.814355 C15,38.114355 15.2,38.314355 15.5,38.314355 C15.7,38.314355 18.3,38.314355 18.5,38.314355 C18.8,38.314355 19,38.114355 19,37.814355 C19,37.514355 18.8,37.314355 18.5,37.314355 Z" id="形状" fill="#FFFFFF"></path>
            <path d="M73.5,40.314355 L63.5,40.314355 C63.2,40.314355 63,40.114355 63,39.814355 C63,39.514355 63.2,39.314355 63.5,39.314355 L73.5,39.314355 C73.8,39.314355 74,39.514355 74,39.814355 C74,40.114355 73.8,40.314355 73.5,40.314355 Z M77.5,40.314355 L75.5,40.314355 C75.2,40.314355 75,40.114355 75,39.814355 C75,39.514355 75.2,39.314355 75.5,39.314355 L77.5,39.314355 C77.8,39.314355 78,39.514355 78,39.814355 C78,40.114355 77.8,40.314355 77.5,40.314355 Z M82.5,42.314355 L72.5,42.314355 C72.2,42.314355 72,42.114355 72,41.814355 C72,41.514355 72.2,41.314355 72.5,41.314355 L82.5,41.314355 C82.8,41.314355 83,41.514355 83,41.814355 C83,42.114355 82.8,42.314355 82.5,42.314355 Z M70.5,42.314355 L69.5,42.314355 C69.2,42.314355 69,42.114355 69,41.814355 C69,41.514355 69.2,41.314355 69.5,41.314355 L70.5,41.314355 C70.8,41.314355 71,41.514355 71,41.814355 C71,42.114355 70.8,42.314355 70.5,42.314355 Z M67.4,42.314355 L65.5,42.314355 C65.2,42.314355 65,42.114355 65,41.814355 C65,41.514355 65.2,41.314355 65.5,41.314355 L67.4,41.314355 C67.7,41.314355 67.9,41.514355 67.9,41.814355 C67.9,42.114355 67.7,42.314355 67.4,42.314355 Z M76.5,38.314355 L71.5,38.314355 C71.2,38.314355 71,38.114355 71,37.814355 C71,37.514355 71.2,37.314355 71.5,37.314355 L76.5,37.314355 C76.8,37.314355 77,37.514355 77,37.814355 C77,38.114355 76.8,38.314355 76.5,38.314355 Z M73.5,44.314355 L71.5,44.314355 C71.2,44.314355 71,44.114355 71,43.814355 C71,43.514355 71.2,43.314355 71.5,43.314355 L73.5,43.314355 C73.8,43.314355 74,43.514355 74,43.814355 C74,44.114355 73.8,44.314355 73.5,44.314355 Z" id="形状" fill="#FFFFFF"></path>
        </g>
    </g>
</svg>