<?xml version="1.0" encoding="UTF-8"?>
<svg width="91px" height="72px" viewBox="0 0 91 72" version="1.1" xmlns="http://www.w3.org/2000/svg" xmlns:xlink="http://www.w3.org/1999/xlink">
    <title>icons8-workflow</title>
    <g id="页面-1" stroke="none" stroke-width="1" fill="none" fill-rule="evenodd">
        <g id="icons8-workflow" fill-rule="nonzero">
            <path d="M81.215,42.71 C82.35,40.555 83,38.105 83,35.5 C83,28.879 78.841,23.243 72.999,21.022 C72.999,21.015 73,21.008 73,21 C73,9.402 63.598,0 52,0 C42.216,0 34.019,6.701 31.687,15.757 C30.211,15.272 28.638,15 27,15 C19.308,15 12.977,20.793 12.11,28.252 C6.906,29.353 3,33.969 3,39.5 C3,45.851 8.149,51 14.5,51 C14.677,51 14.852,50.988 15.026,50.978 C15.022,51.153 15,51.324 15,51.5 C15,62.822 24.178,72 35.5,72 C41.937,72 47.675,69.028 51.434,64.386 C53.612,66.611 56.64,68 60,68 C64.65,68 68.674,65.35 70.666,61.482 C71.718,61.817 72.837,62 74,62 C80.075,62 85,57.075 85,51 C85,47.689 83.53,44.727 81.215,42.71 Z" id="路径" fill="#7D7FE9"></path>
            <path d="M59.5,22.5 L59.5,23 L56.5,23 L56.5,22.5 C56.5,22.5 52.258,22.5 51,22.5 C48.515,22.5 46.5,20.485 46.5,18 C46.5,15.667 48.282,13.771 50.555,13.545 C50.533,13.364 50.5,13.187 50.5,13 C50.5,10.515 52.515,8.5 55,8.5 C56.438,8.5 57.703,9.186 58.527,10.236 C58.667,7.6 60.829,5.5 63.5,5.5 C66.261,5.5 68.5,7.739 68.5,10.5 C68.5,10.946 68.423,11.37 68.313,11.782 C68.955,11.005 69.913,10.5 71,10.5 C72.781,10.5 74.234,11.835 74.455,13.555 C74.636,13.533 74.813,13.5 75,13.5 C77.485,13.5 79.5,15.515 79.5,18 C79.5,20.485 77.485,22.5 75,22.5 C72.515,22.5 65.5,22.5 65.5,22.5 L59.5,22.5 Z" id="路径" fill="#FDFCEF"></path>
            <path d="M63.5,5 C66.533,5 69,7.467 69,10.5 C69,10.516 69,10.531 69,10.547 C69.602,10.192 70.29,10 71,10 C72.831,10 74.411,11.261 74.858,13.005 C74.905,13.002 74.952,13 75,13 C77.757,13 80,15.243 80,18 C80,20.757 77.757,23 75,23 L59.5,23 C59.224,23 59,22.776 59,22.5 C59,22.224 59.224,22 59.5,22 L75,22 C77.206,22 79,20.206 79,18 C79,15.794 77.206,14 75,14 C74.883,14 74.77,14.017 74.657,14.032 L74.516,14.051 C74.495,14.054 74.475,14.055 74.454,14.055 C74.208,14.055 73.992,13.87 73.959,13.618 C73.768,12.125 72.496,11 71,11 C70.115,11 69.277,11.401 68.699,12.1 C68.601,12.218 68.458,12.282 68.313,12.282 C68.235,12.282 68.157,12.264 68.085,12.226 C67.876,12.119 67.771,11.88 67.831,11.653 C67.946,11.218 68,10.852 68,10.5 C68,8.019 65.981,6 63.5,6 C61.119,6 59.153,7.872 59.026,10.263 C59.015,10.471 58.876,10.65 58.677,10.713 C58.627,10.729 58.576,10.737 58.525,10.737 C58.375,10.737 58.229,10.668 58.133,10.545 C57.362,9.563 56.221,9 55,9 C52.794,9 51,10.794 51,13 C51,13.117 51.017,13.23 51.032,13.343 L51.051,13.484 C51.067,13.618 51.029,13.752 50.945,13.857 C50.861,13.962 50.738,14.029 50.605,14.042 C48.549,14.247 47,15.949 47,18 C47,20.206 48.794,22 51,22 L56.5,22 C56.776,22 57,22.224 57,22.5 C57,22.776 56.776,23 56.5,23 L51,23 C48.243,23 46,20.757 46,18 C46,15.603 47.689,13.587 50.003,13.123 C50.001,13.082 50,13.041 50,13 C50,10.243 52.243,8 55,8 C56.176,8 57.293,8.416 58.183,9.164 C58.781,6.76 60.945,5 63.5,5 L63.5,5 Z" id="路径" fill="#472B29"></path>
            <path d="M65,12 C66.403,12 67.609,12.999 67.913,14.341 C68.28,14.119 68.699,14 69.125,14 C70.327,14 71.323,14.897 71.478,16.068 C71.681,16.022 71.874,16 72.063,16 C73.592,16 74.874,17.2 74.981,18.732 C74.99,18.87 74.886,18.99 74.749,19 C74.743,19 74.737,19 74.731,19 C74.601,19 74.491,18.899 74.482,18.768 C74.393,17.497 73.331,16.5 72.063,16.5 C71.834,16.5 71.593,16.542 71.325,16.627 C71.303,16.634 71.28,16.637 71.258,16.637 C71.203,16.637 71.148,16.617 71.102,16.583 C71.038,16.537 71,16.455 71,16.375 C71,15.341 70.159,14.5 69.125,14.5 C68.678,14.5 68.24,14.668 67.894,14.973 C67.847,15.014 67.788,15.036 67.729,15.036 C67.697,15.036 67.666,15.03 67.636,15.017 C67.548,14.982 67.488,14.9 67.481,14.805 C67.377,13.512 66.288,12.5 65,12.5 C64.792,12.5 64.575,12.534 64.318,12.607 C64.295,12.614 64.271,12.617 64.248,12.617 C64.139,12.617 64.041,12.544 64.009,12.435 C63.971,12.302 64.048,12.164 64.181,12.126 C64.483,12.04 64.744,12 65,12 L65,12 Z M51.117,13.5 C52.443,13.5 53.625,14.397 53.991,15.682 C54.029,15.815 53.952,15.953 53.819,15.991 C53.795,15.997 53.772,16 53.75,16 C53.641,16 53.541,15.928 53.51,15.818 C53.205,14.748 52.221,14 51.117,14 C51,14 50.887,14.014 50.775,14.029 C50.763,14.031 50.752,14.032 50.74,14.032 C50.619,14.032 50.511,13.94 50.494,13.815 C50.475,13.678 50.571,13.552 50.708,13.534 C50.842,13.516 50.978,13.5 51.117,13.5 L51.117,13.5 Z" id="形状" fill="#472B29"></path>
            <path d="M10.5,37 L0.5,37 C0.224,37 0,36.776 0,36.5 C0,36.224 0.224,36 0.5,36 L10.5,36 C10.776,36 11,36.224 11,36.5 C11,36.776 10.777,37 10.5,37 Z M13.5,37 L12.5,37 C12.224,37 12,36.776 12,36.5 C12,36.224 12.224,36 12.5,36 L13.5,36 C13.776,36 14,36.224 14,36.5 C14,36.776 13.777,37 13.5,37 Z M18.491,39 L9.5,39 C9.224,39 9,38.776 9,38.5 C9,38.224 9.224,38 9.5,38 L18.491,38 C18.767,38 18.991,38.224 18.991,38.5 C18.991,38.776 18.767,39 18.491,39 Z M7.5,39 L6.5,39 C6.224,39 6,38.776 6,38.5 C6,38.224 6.224,38 6.5,38 L7.5,38 C7.776,38 8,38.224 8,38.5 C8,38.776 7.777,39 7.5,39 Z M4.5,39 L2.5,39 C2.224,39 2,38.776 2,38.5 C2,38.224 2.224,38 2.5,38 L4.5,38 C4.776,38 5,38.224 5,38.5 C5,38.776 4.777,39 4.5,39 Z M10.5,41 L8.5,41 C8.224,41 8,40.776 8,40.5 C8,40.224 8.224,40 8.5,40 L10.5,40 C10.776,40 11,40.224 11,40.5 C11,40.776 10.776,41 10.5,41 Z M13.5,32 C13.323,32 12.677,32 12.5,32 C12.224,32 12,32.224 12,32.5 C12,32.776 12.224,33 12.5,33 C12.677,33 13.323,33 13.5,33 C13.776,33 14,32.776 14,32.5 C14,32.224 13.776,32 13.5,32 Z M13.5,34 C13.323,34 8.677,34 8.5,34 C8.224,34 8,34.224 8,34.5 C8,34.776 8.224,35 8.5,35 C8.677,35 13.323,35 13.5,35 C13.776,35 14,34.776 14,34.5 C14,34.224 13.776,34 13.5,34 Z M18.5,36 C18.323,36 15.677,36 15.5,36 C15.224,36 15,36.224 15,36.5 C15,36.776 15.224,37 15.5,37 C15.677,37 18.323,37 18.5,37 C18.776,37 19,36.776 19,36.5 C19,36.224 18.776,36 18.5,36 Z M81.5,52 L71.5,52 C71.224,52 71,51.776 71,51.5 C71,51.224 71.224,51 71.5,51 L81.5,51 C81.776,51 82,51.224 82,51.5 C82,51.776 81.776,52 81.5,52 Z M85.5,52 L83.5,52 C83.224,52 83,51.776 83,51.5 C83,51.224 83.224,51 83.5,51 L85.5,51 C85.776,51 86,51.224 86,51.5 C86,51.776 85.776,52 85.5,52 Z M90.5,54 L80.5,54 C80.224,54 80,53.776 80,53.5 C80,53.224 80.224,53 80.5,53 L90.5,53 C90.776,53 91,53.224 91,53.5 C91,53.776 90.777,54 90.5,54 Z M78.5,54 L77.5,54 C77.224,54 77,53.776 77,53.5 C77,53.224 77.224,53 77.5,53 L78.5,53 C78.776,53 79,53.224 79,53.5 C79,53.776 78.776,54 78.5,54 Z M75.47,54 L73.5,54 C73.224,54 73,53.776 73,53.5 C73,53.224 73.224,53 73.5,53 L75.47,53 C75.746,53 75.97,53.224 75.97,53.5 C75.97,53.776 75.746,54 75.47,54 Z M84.5,50 L79.5,50 C79.224,50 79,49.776 79,49.5 C79,49.224 79.224,49 79.5,49 L84.5,49 C84.776,49 85,49.224 85,49.5 C85,49.776 84.777,50 84.5,50 Z M81.5,56 L79.5,56 C79.224,56 79,55.776 79,55.5 C79,55.224 79.224,55 79.5,55 L81.5,55 C81.776,55 82,55.224 82,55.5 C82,55.776 81.776,56 81.5,56 Z" id="形状" fill="#FFFFFF"></path>
            <g id="编组" transform="translate(22.000000, 18.000000)">
                <path d="M8,0.7 C5.39196112,0.7 2.98203377,2.09137201 1.6780143,4.34999991 C0.373994824,6.60862782 0.373994824,9.39137218 1.6780143,11.6500001 C2.98203377,13.908628 5.39196112,15.3 8,15.3 C10.6080389,15.3 13.0179663,13.908628 14.3219858,11.6500001 C15.6260052,9.39137219 15.6260052,6.60862781 14.3219858,4.34999989 C13.0179663,2.09137198 10.6080389,0.7 8,0.7 Z" id="路径" fill="#F9E3AE"></path>
                <path d="M8,1.4 C11.639,1.4 14.6,4.361 14.6,8 C14.6,11.639 11.639,14.6 8,14.6 C4.361,14.6 1.4,11.639 1.4,8 C1.4,4.361 4.361,1.4 8,1.4 M8,0 C3.582,0 0,3.582 0,8 C0,12.418 3.582,16 8,16 C12.418,16 16,12.418 16,8 C16,3.582 12.418,0 8,0 L8,0 Z" id="形状" fill="#472B29"></path>
            </g>
            <path d="M34.5,26.25 C34.362,26.25 34.25,26.138 34.25,26 C34.25,24.441 33.398,23.01 32.027,22.264 C31.906,22.198 31.861,22.046 31.927,21.925 C31.993,21.803 32.145,21.759 32.266,21.824 C33.798,22.658 34.75,24.258 34.75,26 C34.75,26.138 34.638,26.25 34.5,26.25 Z" id="路径" fill="#472B29"></path>
            <path d="M30,30.75 C27.381,30.75 25.25,28.619 25.25,26 C25.25,23.381 27.381,21.25 30,21.25 C30.138,21.25 30.25,21.362 30.25,21.5 C30.25,21.638 30.138,21.75 30,21.75 C27.657,21.75 25.75,23.656 25.75,26 C25.75,28.344 27.657,30.25 30,30.25 C31.467,30.25 32.812,29.509 33.596,28.267 C33.671,28.152 33.827,28.118 33.941,28.19 C34.058,28.263 34.093,28.418 34.019,28.535 C33.142,29.922 31.64,30.75 30,30.75 Z" id="路径" fill="#472B29"></path>
            <g id="编组" transform="translate(52.000000, 46.000000)">
                <path d="M8,0.7 C5.39196112,0.7 2.98203377,2.09137201 1.6780143,4.34999991 C0.373994824,6.60862782 0.373994824,9.39137218 1.6780143,11.6500001 C2.98203377,13.908628 5.39196112,15.3 8,15.3 C10.6080389,15.3 13.0179663,13.908628 14.3219858,11.6500001 C15.6260053,9.3913722 15.6260053,6.6086278 14.3219858,4.34999987 C13.0179663,2.09137195 10.6080389,0.7 8,0.7 L8,0.7 Z" id="路径" fill="#72CAAF"></path>
                <path d="M8,1.4 C11.639,1.4 14.6,4.361 14.6,8 C14.6,11.639 11.639,14.6 8,14.6 C4.361,14.6 1.4,11.639 1.4,8 C1.4,4.361 4.361,1.4 8,1.4 M8,0 C3.582,0 0,3.582 0,8 C0,12.418 3.582,16 8,16 C12.418,16 16,12.418 16,8 C16,3.582 12.418,0 8,0 L8,0 Z" id="形状" fill="#472B29"></path>
            </g>
            <g id="编组" transform="translate(23.000000, 47.000000)">
                <path d="M2.167,13.3 C1.358,13.3 0.701,12.642 0.701,11.833 L0.701,2.167 C0.701,1.358 1.359,0.7 2.167,0.7 L11.834,0.7 C12.643,0.7 13.3,1.358 13.3,2.167 L13.3,11.833 C13.3,12.642 12.642,13.3 11.834,13.3 L2.167,13.3 Z" id="路径" fill="#85CBF8"></path>
                <path d="M11.833,1.4 C12.256,1.4 12.6,1.744 12.6,2.167 L12.6,11.834 C12.6,12.257 12.256,12.601 11.833,12.601 L2.166,12.601 C1.743,12.601 1.399,12.257 1.399,11.834 L1.399,2.167 C1.399,1.744 1.743,1.4 2.166,1.4 L11.833,1.4 M11.833,0 L2.166,0 C0.97,0 0,0.97 0,2.167 L0,11.834 C0,13.03 0.97,14 2.167,14 L11.834,14 C13.03,14 14,13.03 14,11.833 L14,2.166 C14,0.97 13.03,0 11.833,0 L11.833,0 Z" id="形状" fill="#472B29"></path>
            </g>
            <g id="编组" transform="translate(26.249000, 50.250000)">
                <path d="M0.251,0.917 C0.251,0.549 0.549,0.25 0.918,0.25 L6.585,0.25 C6.953,0.25 7.252,0.548 7.252,0.917 L7.252,6.584 C7.252,6.952 6.954,7.251 6.585,7.251 L0.918,7.251 C0.55,7.251 0.251,6.953 0.251,6.584 L0.251,3.459" id="路径" fill="#85CBF8"></path>
                <path d="M6.584,7.5 L0.917,7.5 C0.412,7.5 0,7.089 0,6.583 L0,3.458 C0,3.32 0.112,3.208 0.25,3.208 C0.388,3.208 0.5,3.32 0.5,3.458 L0.5,6.583 C0.5,6.812 0.687,7 0.917,7 L6.584,7 C6.813,7 7.001,6.812 7.001,6.583 L7.001,0.917 C7.001,0.688 6.814,0.5 6.584,0.5 L0.917,0.5 C0.688,0.5 0.5,0.688 0.5,0.917 C0.5,1.055 0.388,1.167 0.25,1.167 C0.112,1.167 0,1.055 0,0.917 C0,0.411 0.411,0 0.917,0 L6.584,0 C7.089,0 7.501,0.411 7.501,0.917 L7.501,6.583 C7.501,7.089 7.09,7.5 6.584,7.5 Z" id="路径" fill="#472B29"></path>
            </g>
            <g id="编组" transform="translate(50.429500, 16.232000)">
                <path d="M9.0705,17.442 C8.7855,17.442 8.5165,17.332 8.3155,17.129 L1.0115,9.826 C0.8095,9.625 0.6985,9.356 0.6985,9.071 C0.6985,8.786 0.8085,8.517 1.0115,8.316 L8.3155,1.012 C8.5165,0.81 8.7855,0.699 9.0705,0.699 C9.3555,0.699 9.6245,0.809 9.8255,1.012 L17.1295,8.316 C17.3315,8.517 17.4425,8.786 17.4425,9.071 C17.4425,9.356 17.3325,9.625 17.1295,9.826 L9.8255,17.129 C9.6245,17.331 9.3555,17.442 9.0705,17.442 Z" id="路径" fill="#F283A5"></path>
                <path d="M9.0705,1.4 C9.1395,1.4 9.2415,1.419 9.3305,1.507 L16.6335,8.81 C16.7765,8.954 16.7765,9.187 16.6335,9.331 L9.3305,16.634 C9.2415,16.723 9.1395,16.741 9.0705,16.741 C9.0015,16.741 8.8995,16.722 8.8105,16.634 L1.5075,9.331 C1.3645,9.187 1.3645,8.954 1.5075,8.81 L8.8105,1.507 C8.8995,1.419 9.0015,1.4 9.0705,1.4 M9.0705,0 C8.6185,0 8.1655,0.172 7.8205,0.518 L0.5175,7.821 C-0.1725,8.511 -0.1725,9.631 0.5175,10.321 L7.8205,17.624 C8.1655,17.969 8.6185,18.142 9.0705,18.142 C9.5225,18.142 9.9755,17.97 10.3205,17.624 L17.6235,10.321 C18.3135,9.631 18.3135,8.511 17.6235,7.821 L10.3205,0.518 C9.9755,0.173 9.5225,0 9.0705,0 L9.0705,0 Z" id="形状" fill="#472B29"></path>
            </g>
            <path d="M47.5,26 L41.5,26 C41.224,26 41,25.776 41,25.5 C41,25.224 41.224,25 41.5,25 L47.5,25 C47.776,25 48,25.224 48,25.5 C48,25.776 47.776,26 47.5,26 Z" id="路径" fill="#472B29"></path>
            <path d="M44.5,29 C44.372,29 44.244,28.951 44.146,28.854 C43.951,28.659 43.951,28.342 44.146,28.147 L46.792,25.501 L44.146,22.855 C43.951,22.66 43.951,22.343 44.146,22.148 C44.341,21.953 44.658,21.953 44.853,22.148 L47.853,25.148 C48.048,25.343 48.048,25.66 47.853,25.855 L44.853,28.855 C44.756,28.951 44.628,29 44.5,29 Z" id="路径" fill="#472B29"></path>
            <path d="M29.5,44 C29.224,44 29,43.776 29,43.5 L29,37.5 C29,37.224 29.224,37 29.5,37 C29.776,37 30,37.224 30,37.5 L30,43.5 C30,43.776 29.776,44 29.5,44 Z" id="路径" fill="#472B29"></path>
            <path d="M32.5,41 C32.372,41 32.244,40.951 32.146,40.854 L29.5,38.207 L26.854,40.853 C26.659,41.048 26.342,41.048 26.147,40.853 C25.952,40.658 25.952,40.341 26.147,40.146 L29.147,37.146 C29.342,36.951 29.659,36.951 29.854,37.146 L32.854,40.146 C33.049,40.341 33.049,40.658 32.854,40.853 C32.756,40.951 32.628,41 32.5,41 Z" id="路径" fill="#472B29"></path>
            <path d="M59.5,44 C59.224,44 59,43.776 59,43.5 L59,37.5 C59,37.224 59.224,37 59.5,37 C59.776,37 60,37.224 60,37.5 L60,43.5 C60,43.776 59.776,44 59.5,44 Z" id="路径" fill="#472B29"></path>
            <path d="M59.5,44 C59.372,44 59.244,43.951 59.146,43.854 L56.146,40.854 C55.951,40.659 55.951,40.342 56.146,40.147 C56.341,39.952 56.658,39.952 56.853,40.147 L59.499,42.793 L62.145,40.147 C62.34,39.952 62.657,39.952 62.852,40.147 C63.047,40.342 63.047,40.659 62.852,40.854 L59.852,43.854 C59.756,43.951 59.628,44 59.5,44 Z" id="路径" fill="#472B29"></path>
            <path d="M64.5,54.25 C64.362,54.25 64.25,54.138 64.25,54 C64.25,52.441 63.398,51.01 62.027,50.264 C61.905,50.198 61.861,50.046 61.926,49.925 C61.993,49.802 62.144,49.758 62.265,49.824 C63.797,50.657 64.7490066,52.258 64.7490066,54 C64.75,54.138 64.638,54.25 64.5,54.25 Z" id="路径" fill="#472B29"></path>
            <path d="M60,58.75 C57.381,58.75 55.25,56.619 55.25,54 C55.25,51.381 57.381,49.25 60,49.25 C60.138,49.25 60.25,49.362 60.25,49.5 C60.25,49.638 60.138,49.75 60,49.75 C57.656,49.75 55.75,51.656 55.75,54 C55.75,56.344 57.656,58.25 60,58.25 C61.467,58.25 62.812,57.509 63.597,56.267 C63.67,56.15 63.825,56.118 63.942,56.19 C64.058,56.263 64.093,56.418 64.019,56.535 C63.142,57.922 61.639,58.75 60,58.75 Z" id="路径" fill="#472B29"></path>
            <path d="M59.525,30.419 C59.272,30.419 59.019,30.322 58.827,30.13 L54.394,25.698 C54.01,25.313 54.01,24.686 54.394,24.302 L58.827,19.87 C59.212,19.485 59.839,19.485 60.223,19.87 L64.655,24.302 C65.04,24.687 65.04,25.314 64.655,25.698 L62.211,28.142 C62.113,28.24 61.955,28.24 61.857,28.142 C61.759,28.044 61.759,27.886 61.857,27.788 L64.301,25.344 C64.491,25.154 64.491,24.845 64.301,24.655 L59.869,20.223 C59.68,20.034 59.369,20.034 59.18,20.223 L54.747,24.655 C54.558,24.845 54.558,25.154 54.747,25.344 L59.18,29.776 C59.369,29.965 59.68,29.965 59.869,29.776 C59.967,29.678 60.125,29.678 60.223,29.776 C60.321,29.874 60.321,30.032 60.223,30.13 C60.031,30.322 59.778,30.419 59.525,30.419 Z" id="路径" fill="#472B29"></path>
            <g id="编组" transform="translate(7.000000, 51.000000)">
                <path d="M18.5,13.5 C18.5,13.5 20.067,13.5 22,13.5 C23.933,13.5 25.5,11.933 25.5,10 C25.5,8.219 24.165,6.766 22.445,6.545 C22.473,6.366 22.5,6.187 22.5,6 C22.5,4.067 20.933,2.5 19,2.5 C17.968,2.5 17.05,2.955 16.41,3.665 C16.026,1.857 14.423,0.5 12.5,0.5 C10.291,0.5 8.5,2.291 8.5,4.5 C8.5,4.691 8.53,4.874 8.556,5.058 C8.128,4.714 7.592,4.5 7,4.5 C5.772,4.5 4.755,5.387 4.545,6.555 C4.366,6.527 4.187,6.5 4,6.5 C2.067,6.5 0.5,8.067 0.5,10 C0.5,11.933 2.067,13.5 4,13.5 C5.933,13.5 11.5,13.5 11.5,13.5 L11.5,14 L18.5,14 L18.5,13.5 Z" id="路径" fill="#FDFCEF"></path>
                <path d="M20.25,9 C20.112,9 20,8.888 20,8.75 C20,7.527 20.995,6.532 22.218,6.532 C22.252,6.541 22.955,6.531 23.462,6.668 C23.595,6.704 23.674,6.841 23.638,6.974 C23.602,7.108 23.465,7.187 23.332,7.15 C22.888,7.03 22.232,7.03 22.219,7.032 C21.271,7.032 20.5,7.803 20.5,8.75 C20.5,8.888 20.388,9 20.25,9 Z M13.5,13 C13.2238576,13 13,13.2238576 13,13.5 C13,13.7761424 13.2238576,14 13.5,14 C13.7761424,14 14,13.7761424 14,13.5 C14,13.2238576 13.7761424,13 13.5,13 Z" id="形状" fill="#472B29"></path>
                <path d="M22,14 L18.5,14 C18.224,14 18,13.776 18,13.5 C18,13.224 18.224,13 18.5,13 L22,13 C23.654,13 25,11.654 25,10 C25,8.504 23.875,7.232 22.382,7.041 C22.248,7.023 22.127,6.953 22.046,6.845 C21.965,6.737 21.931,6.601 21.952,6.468 C21.975,6.314 22,6.16 22,6 C22,4.346 20.654,3 19,3 C18.15,3 17.362,3.355 16.781,4 C16.656,4.139 16.46,4.198 16.281,4.148 C16.099,4.099 15.96,3.953 15.921,3.769 C15.58,2.165 14.141,1 12.5,1 C10.57,1 9,2.57 9,4.5 C9,4.643 9.021,4.78 9.041,4.918 C9.07,5.121 8.978,5.356 8.799,5.458 C8.62,5.56 8.403,5.576 8.243,5.448 C7.878,5.155 7.449,5 7,5 C6.034,5 5.208,5.691 5.037,6.644 C4.989,6.911 4.741,7.09 4.468,7.049 C4.314,7.025 4.16,7 4,7 C2.346,7 1,8.346 1,10 C1,11.654 2.346,13 4,13 L11.5,13 C11.776,13 12,13.224 12,13.5 C12,13.776 11.776,14 11.5,14 L4,14 C1.794,14 0,12.206 0,10 C0,7.794 1.794,6 4,6 C4.059,6 4.116,6.002 4.174,6.006 C4.588,4.82 5.711,4 7,4 C7.349,4 7.689,4.061 8.011,4.18 C8.176,1.847 10.126,0 12.5,0 C14.331,0 15.966,1.127 16.653,2.774 C17.333,2.276 18.155,2 19,2 C21.206,2 23,3.794 23,6 C23,6.048 22.999,6.095 22.996,6.142 C24.739,6.59 26,8.169 26,10 C26,12.206 24.206,14 22,14 Z" id="路径" fill="#472B29"></path>
                <path d="M16.5,13 C16.341,13 15.659,13 15.5,13 C15.224,13 15,13.224 15,13.5 C15,13.776 15.224,14 15.5,14 C15.659,14 16.341,14 16.5,14 C16.776,14 17,13.776 17,13.5 C17,13.224 16.776,13 16.5,13 Z" id="路径" fill="#472B29"></path>
            </g>
        </g>
    </g>
</svg>