<svg width="177" height="16" viewBox="0 0 177 16" fill="none" xmlns="http://www.w3.org/2000/svg">
<path d="M4.31859 8C4.31859 7.17333 4.47859 6.44667 4.79859 5.82C5.13193 5.18 5.59193 4.68 6.17859 4.32C6.77859 3.96 7.47859 3.78 8.27859 3.78C9.09193 3.78 9.79193 3.96 10.3786 4.32C10.9653 4.68 11.4186 5.18 11.7386 5.82C12.0586 6.44667 12.2186 7.17333 12.2186 8C12.2186 8.82667 12.0519 9.56 11.7186 10.2C11.3986 10.8267 10.9386 11.32 10.3386 11.68C9.75193 12.04 9.06526 12.22 8.27859 12.22C7.47859 12.22 6.77859 12.04 6.17859 11.68C5.59193 11.32 5.13193 10.8267 4.79859 10.2C4.47859 9.56 4.31859 8.82667 4.31859 8ZM0.738594 8C0.738594 9.08 0.918594 10.0733 1.27859 10.98C1.65193 11.8867 2.17193 12.6733 2.83859 13.34C3.51859 14.0067 4.31859 14.5267 5.23859 14.9C6.15859 15.26 7.17193 15.44 8.27859 15.44C9.37193 15.44 10.3786 15.26 11.2986 14.9C12.2186 14.5267 13.0119 14.0067 13.6786 13.34C14.3586 12.6733 14.8786 11.8867 15.2386 10.98C15.6119 10.0733 15.7986 9.08 15.7986 8C15.7986 6.92 15.6119 5.93333 15.2386 5.04C14.8653 4.14667 14.3386 3.37333 13.6586 2.72C12.9786 2.06667 12.1786 1.56667 11.2586 1.22C10.3519 0.86 9.35859 0.68 8.27859 0.68C7.21193 0.68 6.21859 0.86 5.29859 1.22C4.37859 1.56667 3.57859 2.06667 2.89859 2.72C2.21859 3.37333 1.68526 4.14667 1.29859 5.04C0.92526 5.93333 0.738594 6.92 0.738594 8ZM21.7444 8C21.7444 7.17333 21.9044 6.44667 22.2244 5.82C22.5577 5.18 23.0177 4.68 23.6044 4.32C24.2044 3.96 24.9044 3.78 25.7044 3.78C26.5177 3.78 27.2177 3.96 27.8044 4.32C28.391 4.68 28.8444 5.18 29.1644 5.82C29.4844 6.44667 29.6444 7.17333 29.6444 8C29.6444 8.82667 29.4777 9.56 29.1444 10.2C28.8244 10.8267 28.3644 11.32 27.7644 11.68C27.1777 12.04 26.491 12.22 25.7044 12.22C24.9044 12.22 24.2044 12.04 23.6044 11.68C23.0177 11.32 22.5577 10.8267 22.2244 10.2C21.9044 9.56 21.7444 8.82667 21.7444 8ZM18.1644 8C18.1644 9.08 18.3444 10.0733 18.7044 10.98C19.0777 11.8867 19.5977 12.6733 20.2644 13.34C20.9444 14.0067 21.7444 14.5267 22.6644 14.9C23.5844 15.26 24.5977 15.44 25.7044 15.44C26.7977 15.44 27.8044 15.26 28.7244 14.9C29.6444 14.5267 30.4377 14.0067 31.1044 13.34C31.7844 12.6733 32.3044 11.8867 32.6644 10.98C33.0377 10.0733 33.2244 9.08 33.2244 8C33.2244 6.92 33.0377 5.93333 32.6644 5.04C32.291 4.14667 31.7644 3.37333 31.0844 2.72C30.4044 2.06667 29.6044 1.56667 28.6844 1.22C27.7777 0.86 26.7844 0.68 25.7044 0.68C24.6377 0.68 23.6444 0.86 22.7244 1.22C21.8044 1.56667 21.0044 2.06667 20.3244 2.72C19.6444 3.37333 19.111 4.14667 18.7244 5.04C18.351 5.93333 18.1644 6.92 18.1644 8ZM39.9902 7.86L43.8102 13.7L47.6502 7.86L48.4902 15H52.0502L49.7902 0.3L43.8102 8.84L37.8502 0.3L35.5902 15H39.1502L39.9902 7.86ZM57.9827 8C57.9827 7.17333 58.1427 6.44667 58.4627 5.82C58.796 5.18 59.256 4.68 59.8427 4.32C60.4427 3.96 61.1427 3.78 61.9427 3.78C62.756 3.78 63.456 3.96 64.0427 4.32C64.6293 4.68 65.0827 5.18 65.4027 5.82C65.7227 6.44667 65.8827 7.17333 65.8827 8C65.8827 8.82667 65.716 9.56 65.3827 10.2C65.0627 10.8267 64.6027 11.32 64.0027 11.68C63.416 12.04 62.7293 12.22 61.9427 12.22C61.1427 12.22 60.4427 12.04 59.8427 11.68C59.256 11.32 58.796 10.8267 58.4627 10.2C58.1427 9.56 57.9827 8.82667 57.9827 8ZM54.4027 8C54.4027 9.08 54.5827 10.0733 54.9427 10.98C55.316 11.8867 55.836 12.6733 56.5027 13.34C57.1827 14.0067 57.9827 14.5267 58.9027 14.9C59.8227 15.26 60.836 15.44 61.9427 15.44C63.036 15.44 64.0427 15.26 64.9627 14.9C65.8827 14.5267 66.676 14.0067 67.3427 13.34C68.0227 12.6733 68.5427 11.8867 68.9027 10.98C69.276 10.0733 69.4627 9.08 69.4627 8C69.4627 6.92 69.276 5.93333 68.9027 5.04C68.5293 4.14667 68.0027 3.37333 67.3227 2.72C66.6427 2.06667 65.8427 1.56667 64.9227 1.22C64.016 0.86 63.0227 0.68 61.9427 0.68C60.876 0.68 59.8827 0.86 58.9627 1.22C58.0427 1.56667 57.2427 2.06667 56.5627 2.72C55.8827 3.37333 55.3493 4.14667 54.9627 5.04C54.5893 5.93333 54.4027 6.92 54.4027 8ZM72.6284 0.999999V15H81.6284V12.1H76.0084V0.999999H72.6284ZM99.727 10.08L97.367 11.78C97.687 12.4467 98.1337 13.06 98.707 13.62C99.2804 14.18 99.9537 14.6267 100.727 14.96C101.514 15.28 102.36 15.44 103.267 15.44C103.92 15.44 104.554 15.34 105.167 15.14C105.794 14.9533 106.347 14.6733 106.827 14.3C107.32 13.9267 107.707 13.4667 107.987 12.92C108.28 12.36 108.427 11.7267 108.427 11.02C108.427 10.4333 108.334 9.91333 108.147 9.46C107.96 9.00667 107.7 8.60667 107.367 8.26C107.047 7.91333 106.674 7.62 106.247 7.38C105.82 7.12667 105.36 6.90667 104.867 6.72C104.214 6.49333 103.654 6.28 103.187 6.08C102.734 5.88 102.38 5.66 102.127 5.42C101.887 5.18 101.767 4.9 101.767 4.58C101.767 4.27333 101.894 4.02 102.147 3.82C102.4 3.60667 102.767 3.5 103.247 3.5C103.607 3.5 103.94 3.57333 104.247 3.72C104.567 3.85333 104.854 4.04667 105.107 4.3C105.374 4.54 105.607 4.82667 105.807 5.16L108.387 3.72C108.147 3.24 107.8 2.76667 107.347 2.3C106.894 1.83333 106.32 1.44667 105.627 1.14C104.947 0.833333 104.14 0.68 103.207 0.68C102.3 0.68 101.474 0.84 100.727 1.16C99.9937 1.46667 99.407 1.92 98.967 2.52C98.5404 3.12 98.327 3.83333 98.327 4.66C98.327 5.35333 98.4537 5.94667 98.707 6.44C98.9604 6.92 99.2804 7.33333 99.667 7.68C100.054 8.01333 100.46 8.28667 100.887 8.5C101.327 8.71333 101.714 8.88 102.047 9C102.727 9.25333 103.274 9.48 103.687 9.68C104.1 9.88 104.4 10.0933 104.587 10.32C104.774 10.5333 104.867 10.82 104.867 11.18C104.867 11.6067 104.707 11.9467 104.387 12.2C104.067 12.44 103.66 12.56 103.167 12.56C102.7 12.56 102.254 12.46 101.827 12.26C101.414 12.06 101.027 11.7733 100.667 11.4C100.32 11.0267 100.007 10.5867 99.727 10.08ZM110.287 4.02H114.127V15H117.507V4.02H121.367V0.999999H110.287V4.02ZM123.798 0.999999V10.4C123.798 11.28 123.938 12.0467 124.218 12.7C124.511 13.3533 124.911 13.8933 125.418 14.32C125.938 14.7333 126.538 15.0467 127.218 15.26C127.898 15.4733 128.631 15.58 129.418 15.58C130.205 15.58 130.938 15.4733 131.618 15.26C132.311 15.0467 132.911 14.7333 133.418 14.32C133.938 13.8933 134.338 13.3533 134.618 12.7C134.911 12.0467 135.058 11.28 135.058 10.4V0.999999H131.678V10.16C131.678 10.8667 131.491 11.44 131.118 11.88C130.745 12.32 130.178 12.54 129.418 12.54C128.671 12.54 128.111 12.32 127.738 11.88C127.365 11.44 127.178 10.8667 127.178 10.16V0.999999H123.798ZM138.921 0.999999V15H142.401V0.999999H138.921ZM143.921 15C145.455 15 146.781 14.7133 147.901 14.14C149.021 13.5667 149.888 12.76 150.501 11.72C151.115 10.6667 151.421 9.42667 151.421 8C151.421 6.56 151.115 5.32 150.501 4.28C149.888 3.24 149.021 2.43333 147.901 1.86C146.781 1.28667 145.455 0.999999 143.921 0.999999H141.161V4H143.801C144.335 4 144.848 4.06667 145.341 4.2C145.848 4.33333 146.288 4.55333 146.661 4.86C147.048 5.16667 147.355 5.58 147.581 6.1C147.808 6.60667 147.921 7.24 147.921 8C147.921 8.76 147.808 9.4 147.581 9.92C147.355 10.4267 147.048 10.8333 146.661 11.14C146.288 11.4467 145.848 11.6667 145.341 11.8C144.848 11.9333 144.335 12 143.801 12H141.161V15H143.921ZM154.589 0.999999V15H158.029V0.999999H154.589ZM164.776 8C164.776 7.17333 164.936 6.44667 165.256 5.82C165.589 5.18 166.049 4.68 166.636 4.32C167.236 3.96 167.936 3.78 168.736 3.78C169.549 3.78 170.249 3.96 170.836 4.32C171.422 4.68 171.876 5.18 172.196 5.82C172.516 6.44667 172.676 7.17333 172.676 8C172.676 8.82667 172.509 9.56 172.176 10.2C171.856 10.8267 171.396 11.32 170.796 11.68C170.209 12.04 169.522 12.22 168.736 12.22C167.936 12.22 167.236 12.04 166.636 11.68C166.049 11.32 165.589 10.8267 165.256 10.2C164.936 9.56 164.776 8.82667 164.776 8ZM161.196 8C161.196 9.08 161.376 10.0733 161.736 10.98C162.109 11.8867 162.629 12.6733 163.296 13.34C163.976 14.0067 164.776 14.5267 165.696 14.9C166.616 15.26 167.629 15.44 168.736 15.44C169.829 15.44 170.836 15.26 171.756 14.9C172.676 14.5267 173.469 14.0067 174.136 13.34C174.816 12.6733 175.336 11.8867 175.696 10.98C176.069 10.0733 176.256 9.08 176.256 8C176.256 6.92 176.069 5.93333 175.696 5.04C175.322 4.14667 174.796 3.37333 174.116 2.72C173.436 2.06667 172.636 1.56667 171.716 1.22C170.809 0.86 169.816 0.68 168.736 0.68C167.669 0.68 166.676 0.86 165.756 1.22C164.836 1.56667 164.036 2.06667 163.356 2.72C162.676 3.37333 162.142 4.14667 161.756 5.04C161.382 5.93333 161.196 6.92 161.196 8Z" fill="#F5F5F5"/>
</svg>
