<svg xmlns="http://www.w3.org/2000/svg" viewBox="0 0 100 100"><path fill="#fefdef" d="M58.5,15L79,35.5V78c0,3.866-3.134,7-7,7H28c-3.866,0-7-3.134-7-7V22c0-3.866,3.134-7,7-7H58.5z"/><path fill="#6474a6" d="M40.999 63.5c-.346 0-.692-.118-.976-.361l-7-6C32.691 56.854 32.5 56.438 32.5 56s.191-.854.523-1.139l7-6c.631-.539 1.576-.466 2.115.162.539.629.467 1.576-.162 2.115L36.305 56l5.672 4.861c.629.539.701 1.486.162 2.115C41.842 63.322 41.422 63.5 40.999 63.5zM59.001 63.5c.346 0 .692-.118.976-.361l7-6C67.309 56.854 67.5 56.438 67.5 56s-.191-.854-.523-1.139l-7-6c-.631-.539-1.576-.466-2.115.162-.539.629-.467 1.576.162 2.115L63.695 56l-5.672 4.861c-.629.539-.701 1.486-.162 2.115C58.158 63.322 58.578 63.5 59.001 63.5zM45.013 69.486c-.199 0-.402-.04-.597-.124-.76-.331-1.108-1.214-.778-1.974l10.986-23.992c.33-.761 1.214-1.105 1.974-.778.76.331 1.108 1.214.778 1.974L46.39 68.583C46.144 69.149 45.592 69.486 45.013 69.486z"/><path fill="none" stroke="#1f212b" stroke-linecap="round" stroke-linejoin="round" stroke-miterlimit="10" d="M74.5 52.5v25c0 1.657-1.343 3-3 3h-43c-1.657 0-3-1.343-3-3v-55c0-1.657 1.343-3 3-3h13M74.5 45.5L74.5 49.5M74.5 40.5L74.5 42.5"/><path fill="#fef6aa" d="M58.5,15v13.5c0,3.866,3.134,7,7,7H79"/><path fill="none" stroke="#1f212b" stroke-miterlimit="10" d="M58.5,15v13.5c0,3.866,3.134,7,7,7H79"/><path fill="none" stroke="#1f212b" stroke-linejoin="round" stroke-miterlimit="10" stroke-width="2" d="M58.5,15L79,35.5V78 c0,3.866-3.134,7-7,7H28c-3.866,0-7-3.134-7-7V22c0-3.866,3.134-7,7-7H58.5z"/><path fill="none" stroke="#000" stroke-linejoin="round" stroke-miterlimit="10" d="M40.999 63.5c-.346 0-.692-.118-.976-.361l-7-6C32.691 56.854 32.5 56.438 32.5 56s.191-.854.523-1.139l7-6c.631-.539 1.576-.466 2.115.162.539.629.467 1.576-.162 2.115L36.305 56l5.672 4.861c.629.539.701 1.486.162 2.115C41.842 63.322 41.422 63.5 40.999 63.5zM59.001 63.5c.346 0 .692-.118.976-.361l7-6C67.309 56.854 67.5 56.438 67.5 56s-.191-.854-.523-1.139l-7-6c-.631-.539-1.576-.466-2.115.162-.539.629-.467 1.576.162 2.115L63.695 56l-5.672 4.861c-.629.539-.701 1.486-.162 2.115C58.158 63.322 58.578 63.5 59.001 63.5zM45.013 69.486c-.199 0-.402-.04-.597-.124-.76-.331-1.108-1.214-.778-1.974l10.986-23.992c.33-.761 1.214-1.105 1.974-.778.76.331 1.108 1.214.778 1.974L46.39 68.583C46.144 69.149 45.592 69.486 45.013 69.486z"/></svg>