<svg width="39" height="13" viewBox="0 0 39 13" fill="none" xmlns="http://www.w3.org/2000/svg">
<path d="M3.408 6.4C3.408 7.06133 3.536 7.648 3.792 8.16C4.05867 8.66133 4.42667 9.056 4.896 9.344C5.376 9.632 5.936 9.776 6.576 9.776C7.20533 9.776 7.75467 9.632 8.224 9.344C8.704 9.056 9.072 8.66133 9.328 8.16C9.59467 7.648 9.728 7.06133 9.728 6.4C9.728 5.73867 9.6 5.15733 9.344 4.656C9.088 4.144 8.72533 3.744 8.256 3.456C7.78667 3.168 7.22667 3.024 6.576 3.024C5.936 3.024 5.376 3.168 4.896 3.456C4.42667 3.744 4.05867 4.144 3.792 4.656C3.536 5.15733 3.408 5.73867 3.408 6.4ZM0.544 6.4C0.544 5.536 0.693333 4.74667 0.992 4.032C1.30133 3.31733 1.728 2.69867 2.272 2.176C2.816 1.65333 3.456 1.25333 4.192 0.976C4.928 0.688 5.72267 0.544 6.576 0.544C7.44 0.544 8.23467 0.688 8.96 0.976C9.696 1.25333 10.336 1.65333 10.88 2.176C11.424 2.69867 11.8453 3.31733 12.144 4.032C12.4427 4.74667 12.592 5.536 12.592 6.4C12.592 7.264 12.4427 8.05867 12.144 8.784C11.856 9.50933 11.44 10.1387 10.896 10.672C10.3627 11.2053 9.728 11.6213 8.992 11.92C8.256 12.208 7.45067 12.352 6.576 12.352C5.69067 12.352 4.88 12.208 4.144 11.92C3.408 11.6213 2.768 11.2053 2.224 10.672C1.69067 10.1387 1.27467 9.50933 0.976 8.784C0.688 8.05867 0.544 7.264 0.544 6.4ZM18.5283 7.488L21.2643 0.799999H24.4323L18.5283 12.704L12.6402 0.799999H15.7923L18.5283 7.488ZM28.4859 6.288L27.8139 12H24.9659L26.7739 0.24L31.5419 7.072L36.3259 0.24L38.1339 12H35.2859L34.6139 6.288L31.5419 10.96L28.4859 6.288Z" fill="black"/>
</svg>
